<?xml version="1.0" encoding="UTF-8" standalone="no"?>
<!-- Created with Inkscape (http://www.inkscape.org/) -->

<svg
   xmlns:dc="http://purl.org/dc/elements/1.1/"
   xmlns:cc="http://creativecommons.org/ns#"
   xmlns:rdf="http://www.w3.org/1999/02/22-rdf-syntax-ns#"
   xmlns:svg="http://www.w3.org/2000/svg"
   xmlns="http://www.w3.org/2000/svg"
   xmlns:sodipodi="http://sodipodi.sourceforge.net/DTD/sodipodi-0.dtd"
   xmlns:inkscape="http://www.inkscape.org/namespaces/inkscape"
   width="764.49988"
   height="415.40625"
   id="svg2"
   version="1.1"
   inkscape:version="0.91 r13725"
   sodipodi:docname="electroaimant.svg">
  <defs
     id="defs4" />
  <sodipodi:namedview
     id="base"
     pagecolor="#ffffff"
     bordercolor="#666666"
     borderopacity="1.0"
     inkscape:pageopacity="0.0"
     inkscape:pageshadow="2"
     inkscape:zoom="0.7"
     inkscape:cx="808.98212"
     inkscape:cy="93.729348"
     inkscape:document-units="px"
     inkscape:current-layer="layer1"
     showgrid="false"
     inkscape:window-width="1600"
     inkscape:window-height="851"
     inkscape:window-x="0"
     inkscape:window-y="25"
     inkscape:window-maximized="1"
     fit-margin-top="0"
     fit-margin-left="0"
     fit-margin-right="0"
     fit-margin-bottom="0" />
  <metadata
     id="metadata7">
    <rdf:RDF>
      <cc:Work
         rdf:about="">
        <dc:format>image/svg+xml</dc:format>
        <dc:type
           rdf:resource="http://purl.org/dc/dcmitype/StillImage" />
        <dc:title />
      </cc:Work>
    </rdf:RDF>
  </metadata>
  <g
     inkscape:label="Calque 1"
     inkscape:groupmode="layer"
     id="layer1"
     transform="translate(182.81238,-141.375)">
    <path
       style="fill:#ff6600;fill-opacity:1;stroke:none"
       d="m 532.75,148.03125 c -0.45373,0 -0.92423,-8e-5 -1.375,0.0312 l -404.53125,0 0,250 404.53125,0 0,-0.0625 c 0.45077,0.0313 0.92127,0.0312 1.375,0.0312 27.03171,0 48.9375,-55.96324 48.9375,-125 0,-69.03676 -21.90579,-125 -48.9375,-125 z"
       id="rect3004"
       inkscape:connector-curvature="0" />
    <path
       sodipodi:type="arc"
       style="fill:#ff9955;fill-opacity:1;stroke:none"
       id="path3774"
       sodipodi:cx="94.285713"
       sodipodi:cy="303.44189"
       sodipodi:rx="75.714287"
       sodipodi:ry="122.50829"
       d="M 170,303.44189 A 75.714287,122.50829 0 0 1 94.285713,425.95019 75.714287,122.50829 0 0 1 18.571426,303.44189 75.714287,122.50829 0 0 1 94.285713,180.9336 75.714287,122.50829 0 0 1 170,303.44189 Z"
       transform="matrix(0.64644661,0,0,1.0203563,60.851705,-36.54028)" />
    <path
       style="color:#000000;fill:none;stroke:#00003f;stroke-width:6.00000048;stroke-linecap:square;stroke-linejoin:miter;stroke-miterlimit:4;stroke-opacity:1;stroke-dasharray:none;stroke-dashoffset:0;marker:none;visibility:visible;display:inline;overflow:visible;enable-background:accumulate"
       d="m 186.72467,145.01837 5.13393,0.54859 5.26785,2.0115 4.73215,2.88007 4.10714,3.93157 3.25893,3.84011 3.57143,5.39447 2.36607,3.79439 2.32143,4.84588 2.94643,6.1259 1.74107,5.12017 2.27678,6.44591 1.83036,5.8059 2.5,9.006 4.19643,19.74919 1.91964,16.32051 1.11607,16.00051 0.26786,19.84062 -0.58036,14.67476 -0.89285,14.30901 -2.72322,19.10918 -3.125,15.26906 -4.64286,16.5948 -5.9375,15.31478 -6.5625,11.70322 -6.5625,8.50312 -7.09821,5.8059 -6.47321,2.46865 -5.26786,0.41143"
       id="path3867"
       inkscape:connector-curvature="0" />
    <path
       style="color:#000000;fill:none;stroke:#00003f;stroke-width:6.00000048;stroke-linecap:square;stroke-linejoin:miter;stroke-miterlimit:4;stroke-opacity:1;stroke-dasharray:none;stroke-dashoffset:0;marker:none;visibility:visible;display:inline;overflow:visible;enable-background:accumulate"
       d="m 263.48255,144.68495 5.13393,0.5486 5.26785,2.0115 4.73215,2.88008 4.10714,3.93156 3.25893,3.84012 3.57143,5.39446 2.36607,3.79439 2.32143,4.84588 2.94643,6.1259 1.74107,5.12017 2.27678,6.44591 1.83036,5.8059 2.5,9.00601 4.19643,19.74917 1.91964,16.32052 1.11607,16.00052 0.26786,19.84061 -0.58036,14.67476 -0.89285,14.30902 -2.72322,19.10917 -3.125,15.26905 -4.64286,16.59481 -5.9375,15.31477 -6.5625,11.70324 -6.5625,8.50312 -7.09821,5.8059 -6.47321,2.46864 -5.26786,0.41143"
       id="path3867-8"
       inkscape:connector-curvature="0" />
    <path
       style="color:#000000;fill:none;stroke:#00003f;stroke-width:6.00000048;stroke-linecap:square;stroke-linejoin:miter;stroke-miterlimit:4;stroke-opacity:1;stroke-dasharray:none;stroke-dashoffset:0;marker:none;visibility:visible;display:inline;overflow:visible;enable-background:accumulate"
       d="m 340.24047,145.15744 5.13393,0.54861 5.26785,2.01148 4.73215,2.88008 4.10714,3.93157 3.25893,3.84011 3.57143,5.39447 2.36607,3.7944 2.32143,4.84586 2.94643,6.12591 1.74107,5.12016 2.27678,6.44593 1.83036,5.8059 2.5,9.00599 4.19643,19.74918 1.91964,16.32053 1.11607,16.0005 0.26786,19.84062 -0.58036,14.67475 -0.89285,14.30902 -2.72322,19.10918 -3.125,15.26906 -4.64286,16.5948 -5.9375,15.31477 -6.5625,11.70323 -6.5625,8.50313 -7.09821,5.80589 -6.47321,2.46865 -5.26786,0.41143"
       id="path3867-9"
       inkscape:connector-curvature="0" />
    <path
       style="color:#000000;fill:none;stroke:#00003f;stroke-width:6.00000048;stroke-linecap:square;stroke-linejoin:miter;stroke-miterlimit:4;stroke-opacity:1;stroke-dasharray:none;stroke-dashoffset:0;marker:none;visibility:visible;display:inline;overflow:visible;enable-background:accumulate"
       d="m 416.99836,144.85256 5.13393,0.5486 5.26785,2.0115 4.73215,2.88008 4.10714,3.93156 3.25893,3.84012 3.57143,5.39447 2.36607,3.79438 2.32143,4.84589 2.94643,6.1259 1.74107,5.12016 2.27678,6.44591 1.83036,5.8059 2.5,9.00601 4.19643,19.74918 1.91964,16.32051 1.11607,16.00052 0.26786,19.84062 -0.58036,14.67475 -0.89285,14.30903 -2.72322,19.10917 -3.125,15.26905 -4.64286,16.59482 -5.9375,15.31475 -6.5625,11.70324 -6.5625,8.50313 -7.09821,5.80589 -6.47321,2.46864 -5.26786,0.41143"
       id="path3867-9-3"
       inkscape:connector-curvature="0" />
    <path
       style="color:#000000;fill:none;stroke:#000044;stroke-width:6.00000048;stroke-linecap:square;stroke-linejoin:miter;stroke-miterlimit:4;stroke-opacity:1;stroke-dasharray:none;stroke-dashoffset:0;marker:none;visibility:visible;display:inline;overflow:visible;enable-background:accumulate"
       d="m 492.21614,145.13953 8.21429,1.50069 9.91071,4.67866 7.58929,8.47454 8.125,13.32974 6.96428,18.18496 4.55357,17.92012 3.75,15.36011 2.14286,19.77394 1.07143,19.42081 0,190.14753 -0.89286,0"
       id="path3942"
       inkscape:connector-curvature="0" />
    <path
       style="color:#000000;fill:none;stroke:#00004f;stroke-width:6;stroke-linecap:square;stroke-linejoin:miter;stroke-miterlimit:4;stroke-opacity:1;stroke-dasharray:none;stroke-dashoffset:0;marker:none;visibility:visible;display:inline;overflow:visible;enable-background:accumulate"
       d="m 139.99999,401.4524 0,95.05304"
       id="path3944"
       inkscape:connector-curvature="0" />
    <path
       style="color:#000000;display:inline;overflow:visible;visibility:visible;fill:none;stroke:#000000;stroke-width:5;stroke-linecap:square;stroke-linejoin:miter;stroke-miterlimit:4;stroke-dasharray:none;stroke-dashoffset:0;stroke-opacity:1;marker:none;enable-background:accumulate"
       d="m 352.07512,447.19959 c 0,107.07616 0,107.07616 0,107.07616"
       id="path3946"
       inkscape:connector-curvature="0" />
    <path
       style="color:#000000;display:inline;overflow:visible;visibility:visible;fill:none;stroke:#000000;stroke-width:10;stroke-linecap:square;stroke-linejoin:miter;stroke-miterlimit:4;stroke-dasharray:none;stroke-dashoffset:0;stroke-opacity:1;marker:none;enable-background:accumulate"
       d="m 336.92283,479.01939 c 0,37.37565 0,37.37565 0,37.37565"
       id="path3948"
       inkscape:connector-curvature="0" />
    <path
       style="color:#000000;fill:none;stroke:#00004f;stroke-width:6;stroke-linecap:square;stroke-linejoin:miter;stroke-miterlimit:4;stroke-opacity:1;stroke-dasharray:none;stroke-dashoffset:0;marker:none;visibility:visible;display:inline;overflow:visible;enable-background:accumulate"
       d="m 330.31269,496.44652 -185.78874,0"
       id="path3944-4"
       inkscape:connector-curvature="0" />
    <path
       style="color:#000000;fill:none;stroke:#00004f;stroke-width:6;stroke-linecap:square;stroke-linejoin:miter;stroke-miterlimit:4;stroke-opacity:1;stroke-dasharray:none;stroke-dashoffset:0;marker:none;visibility:visible;display:inline;overflow:visible;enable-background:accumulate"
       d="m 544.31,496.12527 -185.78874,0"
       id="path3944-4-9"
       inkscape:connector-curvature="0" />
    <path
       style="color:#000000;fill:none;stroke:#00004f;stroke-width:5.99999952;stroke-linecap:square;stroke-linejoin:miter;stroke-miterlimit:4;stroke-opacity:1;stroke-dasharray:none;stroke-dashoffset:0;marker:none;visibility:visible;display:inline;overflow:visible;enable-background:accumulate"
       d="m 544.47635,495.11541 0,-37.46217"
       id="path3944-4-9-1"
       inkscape:connector-curvature="0" />
    <path
       style="color:#000000;display:inline;overflow:visible;visibility:visible;fill:#ff0000;stroke:#ff0000;stroke-width:5;stroke-linecap:square;stroke-linejoin:miter;stroke-miterlimit:4;stroke-dasharray:none;stroke-dashoffset:0;stroke-opacity:1;marker:none;enable-background:accumulate"
       d="m 385.50505,496.47267 c -14.04441,0 -14.04441,0 -14.04441,0"
       id="path4004"
       inkscape:connector-curvature="0" />
    <path
       sodipodi:type="star"
       style="fill:#ff0000;fill-opacity:1;stroke:#ff0000;stroke-width:5;stroke-linecap:square;stroke-linejoin:miter;stroke-miterlimit:4;stroke-dasharray:none;stroke-dashoffset:0;stroke-opacity:1"
       id="path4006"
       sodipodi:sides="3"
       sodipodi:cx="-389.48032"
       sodipodi:cy="496.3031"
       sodipodi:r1="9.4356031"
       sodipodi:r2="4.717802"
       sodipodi:arg1="-1.0471976"
       sodipodi:arg2="0"
       inkscape:flatsided="false"
       inkscape:rounded="0"
       inkscape:randomized="0"
       d="m -384.76251,488.13163 0,8.17147 0,8.17147 -7.07671,-4.08573 -7.0767,-4.08574 7.0767,-4.08574 z"
       inkscape:transform-center-x="-2.3589105"
       transform="scale(-1,1)"
       inkscape:transform-center-y="1.2101563e-05" />
    <text
       xml:space="preserve"
       style="font-size:56px;font-style:normal;font-variant:normal;font-weight:bold;font-stretch:normal;text-indent:0;text-align:start;text-decoration:none;line-height:125%;letter-spacing:0px;word-spacing:0px;text-transform:none;direction:ltr;block-progression:tb;writing-mode:lr-tb;text-anchor:start;baseline-shift:baseline;color:#000000;fill:#ff0000;fill-opacity:1;fill-rule:nonzero;stroke:none;stroke-width:1px;marker:none;visibility:visible;display:inline;overflow:visible;enable-background:accumulate;font-family:Latin Modern Roman;-inkscape-font-specification:Latin Modern Roman"
       x="325"
       y="248.79074"
       id="text4008"
       sodipodi:linespacing="125%"><tspan
         sodipodi:role="line"
         id="tspan4010"
         x="325"
         y="248.79074"
         style="fill:#ff0000;stroke:#ff0000;stroke-opacity:1">I</tspan></text>
    <g
       id="g4033"
       transform="matrix(0,1,1,0,-143.1198,-4.5263348)">
      <path
         inkscape:connector-curvature="0"
         id="path4004-9"
         d="m 239.68322,455.3889 c 14.04441,0 14.04441,0 14.04441,0"
         style="color:#000000;display:inline;overflow:visible;visibility:visible;fill:#ff0000;stroke:#ff0000;stroke-width:5;stroke-linecap:square;stroke-linejoin:miter;stroke-miterlimit:4;stroke-dasharray:none;stroke-dashoffset:0;stroke-opacity:1;marker:none;enable-background:accumulate" />
      <path
         transform="translate(86.065114,-88.571446)"
         inkscape:transform-center-x="2.3589007"
         d="m 154.36065,535.6193 0,8.17147 0,8.17147 -7.0767,-4.08573 -7.0767,-4.08574 7.0767,-4.08573 z"
         inkscape:randomized="0"
         inkscape:rounded="0"
         inkscape:flatsided="false"
         sodipodi:arg2="0"
         sodipodi:arg1="-1.0471976"
         sodipodi:r2="4.717802"
         sodipodi:r1="9.4356031"
         sodipodi:cy="543.79077"
         sodipodi:cx="149.64285"
         sodipodi:sides="3"
         id="path4006-2"
         style="fill:#ff0000;fill-opacity:1;stroke:#ff0000;stroke-width:5;stroke-linecap:square;stroke-linejoin:miter;stroke-miterlimit:4;stroke-dasharray:none;stroke-dashoffset:0;stroke-opacity:1"
         sodipodi:type="star" />
    </g>
    <text
       xml:space="preserve"
       style="color:#000000;font-style:normal;font-variant:normal;font-weight:bold;font-stretch:normal;font-size:56px;line-height:125%;font-family:'Latin Modern Roman';-inkscape-font-specification:'Latin Modern Roman';text-indent:0;text-align:start;text-decoration:none;text-decoration-line:none;letter-spacing:0px;word-spacing:0px;text-transform:none;direction:ltr;block-progression:tb;writing-mode:lr-tb;baseline-shift:baseline;text-anchor:start;display:inline;overflow:visible;visibility:visible;fill:#ff0000;fill-opacity:1;fill-rule:nonzero;stroke:none;stroke-width:1px;marker:none;enable-background:accumulate"
       x="-414.44455"
       y="477.28448"
       id="text4008-6"
       sodipodi:linespacing="125%"
       transform="scale(-1,1)"><tspan
         sodipodi:role="line"
         id="tspan4010-1"
         x="-414.44455"
         y="477.28448"
         style="fill:#ff0000;stroke:#ff0000;stroke-opacity:1">I</tspan></text>
    <path
       style="color:#000000;fill:#008000;stroke:#00ff00;stroke-width:5;stroke-linecap:square;stroke-linejoin:miter;stroke-miterlimit:4;stroke-opacity:1;stroke-dasharray:none;stroke-dashoffset:0;marker:none;visibility:visible;display:inline;overflow:visible;enable-background:accumulate"
       d="m 115.25994,275.09678 c -68.359598,0 -68.359598,0 -68.359598,0"
       id="path4058"
       inkscape:connector-curvature="0" />
    <path
       sodipodi:type="star"
       style="fill:#00ff00;fill-opacity:1;stroke:#00ff00;stroke-width:5;stroke-linecap:square;stroke-linejoin:miter;stroke-miterlimit:4;stroke-opacity:1;stroke-dasharray:none;stroke-dashoffset:0"
       id="path4060"
       sodipodi:sides="3"
       sodipodi:cx="-13.637059"
       sodipodi:cy="262.42288"
       sodipodi:r1="12.657175"
       sodipodi:r2="6.328588"
       sodipodi:arg1="-1.0471976"
       sodipodi:arg2="0"
       inkscape:flatsided="false"
       inkscape:rounded="0"
       inkscape:randomized="0"
       d="m -7.3084722,251.46145 1e-6,10.96143 10e-8,10.96144 -9.4928819,-5.48072 -9.492881,-5.48072 9.492881,-5.48072 z"
       inkscape:transform-center-x="3.1642935"
       transform="translate(54.043161,12.121831)" />
    <text
       xml:space="preserve"
       style="font-size:56px;font-style:normal;font-variant:normal;font-weight:bold;font-stretch:normal;text-indent:0;text-align:start;text-decoration:none;line-height:125%;letter-spacing:0px;word-spacing:0px;text-transform:none;direction:ltr;block-progression:tb;writing-mode:lr-tb;text-anchor:start;baseline-shift:baseline;color:#000000;fill:#000000;fill-opacity:1;fill-rule:nonzero;stroke:none;stroke-width:1px;marker:none;visibility:visible;display:inline;overflow:visible;enable-background:accumulate;font-family:Latin Modern Roman;-inkscape-font-specification:Latin Modern Roman"
       x="-184.99638"
       y="240.19954"
       id="text4062"
       sodipodi:linespacing="125%"><tspan
         sodipodi:role="line"
         id="tspan4064"
         x="-184.99638"
         y="240.19954"
         style="fill:#00ff00">B=µ.N.I</tspan></text>
  </g>
</svg>
