<?xml version="1.0" encoding="UTF-8" standalone="no"?>
<!-- Created with Inkscape (http://www.inkscape.org/) -->

<svg
   xmlns:dc="http://purl.org/dc/elements/1.1/"
   xmlns:cc="http://creativecommons.org/ns#"
   xmlns:rdf="http://www.w3.org/1999/02/22-rdf-syntax-ns#"
   xmlns:svg="http://www.w3.org/2000/svg"
   xmlns="http://www.w3.org/2000/svg"
   xmlns:sodipodi="http://sodipodi.sourceforge.net/DTD/sodipodi-0.dtd"
   xmlns:inkscape="http://www.inkscape.org/namespaces/inkscape"
   width="1294.1051"
   height="1346.0155"
   id="svg2"
   version="1.1"
   inkscape:version="0.48.4 r9939"
   sodipodi:docname="principe_mcc.svg">
  <defs
     id="defs4" />
  <sodipodi:namedview
     id="base"
     pagecolor="#ffffff"
     bordercolor="#666666"
     borderopacity="1.0"
     inkscape:pageopacity="0.0"
     inkscape:pageshadow="2"
     inkscape:zoom="0.12374369"
     inkscape:cx="264.80861"
     inkscape:cy="-162.96496"
     inkscape:document-units="px"
     inkscape:current-layer="layer1"
     showgrid="false"
     inkscape:window-width="1280"
     inkscape:window-height="804"
     inkscape:window-x="0"
     inkscape:window-y="24"
     inkscape:window-maximized="1"
     fit-margin-top="0"
     fit-margin-left="0"
     fit-margin-right="0"
     fit-margin-bottom="0" />
  <metadata
     id="metadata7">
    <rdf:RDF>
      <cc:Work
         rdf:about="">
        <dc:format>image/svg+xml</dc:format>
        <dc:type
           rdf:resource="http://purl.org/dc/dcmitype/StillImage" />
        <dc:title />
      </cc:Work>
    </rdf:RDF>
  </metadata>
  <g
     inkscape:label="Calque 1"
     inkscape:groupmode="layer"
     id="layer1"
     transform="translate(193.16894,-8.8595318)">
    <rect
       style="fill:#e9c6af;fill-opacity:1;stroke:none"
       id="rect2985"
       width="405.11279"
       height="460.62955"
       x="225.70111"
       y="224.03709" />
    <path
       sodipodi:type="arc"
       style="fill:#e9c6af;fill-opacity:1;stroke:none"
       id="path2987-3"
       sodipodi:cx="399.01025"
       sodipodi:cy="247.2706"
       sodipodi:rx="97.984795"
       sodipodi:ry="97.984795"
       d="m 496.99505,247.2706 c 0,54.11551 -43.86929,97.98479 -97.9848,97.98479 -54.1155,0 -97.98479,-43.86928 -97.98479,-97.98479 0,-54.11551 43.86929,-97.9848 97.98479,-97.9848 54.11551,0 97.9848,43.86929 97.9848,97.9848 z"
       transform="matrix(2.0662054,0,0,0.6282222,-396.07994,532.54342)" />
    <g
       id="g3988"
       transform="translate(-113.13708,1858.6807)">
      <path
         inkscape:connector-curvature="0"
         id="path3940"
         d="m 501.71485,285.77394 -0.0625,-0.125 c -0.80689,0.0378 -1.53448,0.11965 -2.34375,0.15625 0.81394,-0.008 1.59321,-0.0227 2.40625,-0.0312 z"
         style="fill:#ffb380;fill-opacity:1;stroke:#000000;stroke-width:5.00000048;stroke-linecap:square;stroke-linejoin:miter;stroke-miterlimit:4;stroke-opacity:1;stroke-dasharray:none;stroke-dashoffset:0" />
      <path
         inkscape:connector-curvature="0"
         id="path3938"
         d="m 436.33985,163.08644 0.71875,1.34375 c 171.38197,1.13532 308.59375,28.19331 308.59375,61.46875 0,28.96693 -104.0316,53.19596 -244,59.75 l 0.0625,0.125 c 326.94613,-3.44048 581.18745,-29.50041 581.18745,-61.15625 0,-33.7358 -288.7768,-61.11285 -646.56245,-61.53125 z"
         style="fill:#ac9393;fill-opacity:1;stroke:none" />
      <path
         inkscape:connector-curvature="0"
         id="path3936"
         d="m 347.7461,285.55519 -0.0937,0.125 c 1.09816,0.0127 2.15016,0.0503 3.25,0.0625 -1.09011,-0.0505 -2.07052,-0.13486 -3.15625,-0.1875 z"
         style="fill:#ffb380;fill-opacity:1;stroke:#000000;stroke-width:5.00000048;stroke-linecap:square;stroke-linejoin:miter;stroke-miterlimit:4;stroke-opacity:1;stroke-dasharray:none;stroke-dashoffset:0" />
      <path
         inkscape:connector-curvature="0"
         id="path3934"
         d="m 419.2461,163.08644 c -357.477552,0.45163 -645.875,27.81641 -645.875,61.53125 0,31.43189 250.679331,57.32922 574.28125,61.0625 l 0.0937,-0.125 c -138.70197,-6.72514 -241.4687,-30.86226 -241.4687,-59.65625 0,-33.51107 139.13958,-60.72818 312.21875,-61.5 l 0.75,-1.3125 z"
         style="fill:#ff8080;fill-opacity:1;stroke:none" />
      <path
         inkscape:connector-curvature="0"
         id="path3960"
         d="m 349.6211,750.93019 0,0.0625 c 0.47543,0.005 0.93051,0.026 1.40625,0.0312 -0.4858,-0.0225 -0.92132,-0.0708 -1.40625,-0.0937 z"
         style="fill:#ffff00;fill-opacity:1;stroke:#000000;stroke-width:5.00000048;stroke-linecap:square;stroke-linejoin:miter;stroke-miterlimit:4;stroke-opacity:1;stroke-dasharray:none;stroke-dashoffset:0" />
      <path
         inkscape:connector-curvature="0"
         id="path3958"
         d="m -223.78515,235.14894 0,221.96875 0,217.53125 c -1.65453,2.04117 -2.5,4.1313 -2.5,6.21875 0,34.65817 232.8167513,63.41052 539.3125,69.28125 2.93518,0.25145 5.87129,0.51436 8.84375,0.75 9.94793,0.78864 19.32993,1.55 20.84375,1.6875 0.6805,0.0618 1.17596,-0.27718 1.5625,-1.90625 1.78993,0.0247 3.54933,0.0706 5.34375,0.0937 l 0,-0.0937 c -1.77655,-0.0962 -3.51649,-0.20978 -5.28125,-0.3125 1.01525,-4.89745 1.125,-20.34648 1.125,-67.78125 l 0,-57.4375 0.46875,0 0,-10.90625 c 1.22971,-0.0734 2.4474,-0.1516 3.6875,-0.21875 l 0,-3.0625 c -1.23821,0.016 -2.45142,0.0457 -3.6875,0.0625 l 0,-153.25 0,-167.40625 -12.4375,-1.28125 c -6.83001,-0.71388 -28.40852,-1.33225 -47.96875,-1.34375 -19.56023,-0.0116 -67.83479,-1.36358 -107.28125,-3 -213.673259,-8.86412 -355.29895,-25.44293 -395.65625,-46.3125 l -6.375,-3.28125 z"
         style="fill:#ffaaaa;fill-opacity:1;stroke:#000000;stroke-width:0;stroke-linecap:square;stroke-linejoin:miter;stroke-miterlimit:4;stroke-opacity:1;stroke-dasharray:none;stroke-dashoffset:0" />
      <path
         inkscape:connector-curvature="0"
         id="path3844"
         d="m 427.78312,115.9046 c 0,675.71429 0,675.71429 0,675.71429"
         style="color:#000000;fill:none;stroke:#000000;stroke-width:2;stroke-linecap:square;stroke-linejoin:miter;stroke-miterlimit:4;stroke-opacity:1;stroke-dasharray:none;stroke-dashoffset:0;marker:none;visibility:visible;display:inline;overflow:visible;enable-background:accumulate" />
      <path
         inkscape:connector-curvature="0"
         id="path3972"
         d="m 1080.8711,234.83644 -8.2188,4.0625 c -50.4718,25.01965 -244.34796,43.14496 -529.2812,49.46875 l -38.21875,0.84375 0,167.5 0,116.25 0,51.25 0,38.34375 c 0,70.1558 0.74786,89.54885 3.375,89.53125 1.84473,-0.0123 20.85142,-1.04725 42.25,-2.28125 31.12307,-1.79479 61.01653,-3.99384 89.5,-6.53125 8.02211,-0.33118 16.61165,-0.67947 25.9375,-1.09375 213.72561,-9.49424 362.47725,-28.69739 403.43745,-52.0625 9.0534,-5.16436 11.797,-9.14458 8.0625,-13.59375 1.0404,0.46608 1.8472,0.81768 2.0938,0.84375 0.5893,0.0623 1.0625,-99.49574 1.0625,-221.21875 l 0,-221.3125 z"
         style="fill:#c8b7b7;fill-opacity:1;stroke:none" />
      <path
         inkscape:connector-curvature="0"
         id="path3981"
         d="m 440.46674,396.85221 c 0.012,-125.51785 0.54488,-229.03851 1.18411,-230.0459 2.1252,-3.34922 90.35219,0.88482 144.26398,6.92327 93.23554,10.44294 153.19777,29.1476 158.27379,49.37205 6.55724,26.12616 -79.86966,50.61843 -210.88662,59.76254 -16.74683,1.16882 -28.39841,1.42595 -29.21428,0.64472 -2.54917,-2.44096 -5.07143,-1.31104 -5.07143,2.27189 0,2.61905 0.7619,3.57143 2.85714,3.57143 2.84093,0 2.85715,0.95238 2.85715,167.85714 l 0,167.85715 -32.14286,0 -32.14286,0 0.0219,-228.21429 z"
         style="fill:#e3dbdb;fill-opacity:1;stroke:none" />
      <path
         inkscape:connector-curvature="0"
         id="path3983"
         d="m 346.80393,456.50964 c -0.12607,-111.93378 0.77528,-167.14286 2.72877,-167.14286 1.60435,0 2.91701,-1.98683 2.91701,-4.41518 0,-3.43039 -2.07114,-4.03034 -9.28571,-2.6898 -11.04549,2.05236 -89.50749,-5.14762 -127.85714,-11.73267 -55.87407,-9.59419 -100.98457,-26.86517 -106.06893,-40.6095 -10.84995,-29.33021 117.39239,-60.13083 256.06892,-61.50138 l 48.57143,-0.48004 0.7314,227.85714 0.73137,227.85715 -34.17443,0 -34.17444,0 -0.18826,-167.14286 10e-6,0 z"
         style="fill:#ffd5d5;fill-opacity:1;stroke:none" />
    </g>
    <path
       sodipodi:type="arc"
       style="fill:#deaa87;fill-opacity:1;stroke:none"
       id="path2987"
       sodipodi:cx="399.01025"
       sodipodi:cy="247.2706"
       sodipodi:rx="97.984795"
       sodipodi:ry="97.984795"
       d="m 496.99505,247.2706 c 0,54.11551 -43.86929,97.98479 -97.9848,97.98479 -54.1155,0 -97.98479,-43.86928 -97.98479,-97.98479 0,-54.11551 43.86929,-97.9848 97.98479,-97.9848 54.11551,0 97.9848,43.86929 97.9848,97.9848 z"
       transform="matrix(2.0662054,0,0,0.6282222,-396.19136,68.68978)" />
    <path
       style="color:#000000;fill:none;stroke:#000000;stroke-width:1;stroke-linecap:square;stroke-linejoin:miter;stroke-miterlimit:4;stroke-opacity:1;stroke-dasharray:4, 2, 1, 2;stroke-dashoffset:0;marker:none;visibility:visible;display:inline;overflow:visible;enable-background:accumulate"
       d="m 428.73087,26.647896 c 0,788.571434 0,788.571434 0,788.571434"
       id="path3012"
       inkscape:connector-curvature="0" />
    <path
       style="color:#000000;fill:none;stroke:#000000;stroke-width:1;stroke-linecap:square;stroke-linejoin:miter;stroke-miterlimit:4;stroke-opacity:1;stroke-dasharray:4.00000003, 2.00000002, 1.00000001, 2.00000002;stroke-dashoffset:0;marker:none;visibility:visible;display:inline;overflow:visible;enable-background:accumulate"
       d="m 225.4123,221.25917 c 406.19919,0 406.19919,0 406.19919,0"
       id="path3012-0"
       inkscape:connector-curvature="0" />
    <path
       style="color:#000000;fill:none;stroke:#000000;stroke-width:20;stroke-linecap:square;stroke-linejoin:miter;stroke-miterlimit:0;stroke-opacity:1;stroke-dasharray:none;stroke-dashoffset:0;marker:none;visibility:visible;display:inline;overflow:visible;enable-background:accumulate"
       d="m 555.5839,175.54977 c 0,0 -260.11428,92.93404 -263.64981,92.93404 0,464.67017 0,464.67017 0,464.67017"
       id="path3800"
       inkscape:connector-curvature="0" />
    <path
       style="color:#000000;fill:none;stroke:#000000;stroke-width:1;stroke-linecap:square;stroke-linejoin:miter;stroke-miterlimit:4;stroke-opacity:1;stroke-dasharray:4.00000003, 2.00000002, 1.00000001, 2.00000002;stroke-dashoffset:0;marker:none;visibility:visible;display:inline;overflow:visible;enable-background:accumulate"
       d="m 233.2863,690.72757 c 406.19919,0 406.19919,0 406.19919,0"
       id="path3012-0-2"
       inkscape:connector-curvature="0" />
    <g
       id="g3784"
       transform="matrix(1.1591318,0,0,1.1591318,-137.07849,-455.88169)">
      <path
         id="path3001"
         d="m 423.875,1104.1875 0,151.0625 0.15625,0 c -0.0606,0.3538 -0.0937,0.7041 -0.0937,1.0625 0,11.1501 29.69365,20.1875 66.3125,20.1875 l 0.0937,0 0,-40.375 -0.0937,0 c -0.78742,0 -1.56296,0.023 -2.34375,0.031 l 0,-131.9687 -64.03125,0 z"
         style="fill:#0000ff;fill-opacity:1;stroke:#000000;stroke-width:4.31357288;stroke-linecap:square;stroke-linejoin:miter;stroke-miterlimit:4;stroke-opacity:1;stroke-dasharray:none;stroke-dashoffset:0"
         inkscape:connector-curvature="0" />
      <path
         id="rect2985-8"
         d="m 487.90625,1104.1875 0,151.0625 0.0625,0 0,21.25 c 37.88139,-0.016 68.59375,-9.0472 68.59375,-20.1875 0,-0.3581 -0.0311,-0.709 -0.0937,-1.0625 l 0.0937,0 0,-151.0625 -68.65625,0 z"
         style="fill:#ff0000;fill-opacity:1;stroke:#000000;stroke-width:4.31357288;stroke-linecap:square;stroke-linejoin:miter;stroke-miterlimit:4;stroke-opacity:1;stroke-dasharray:none;stroke-dashoffset:0"
         inkscape:connector-curvature="0" />
      <path
         id="path3006"
         d="m 489.65625,1084.0312 c -36.353,0.095 -65.75,9.0649 -65.75,20.1563 0,11.0914 29.397,20.0618 65.75,20.1563 l 0,-40.3126 z"
         style="fill:#0000ff;fill-opacity:1;stroke:#000000;stroke-width:4.31357336;stroke-linecap:square;stroke-linejoin:miter;stroke-miterlimit:4;stroke-opacity:1;stroke-dasharray:none;stroke-dashoffset:0"
         inkscape:connector-curvature="0" />
      <path
         inkscape:connector-curvature="0"
         id="path2987-6"
         d="m 488.04912,1084.0312 0,40.3126 c 0.19689,4e-4 0.37874,0.031 0.57602,0.031 37.49929,0 67.87487,-9.0374 67.87487,-20.1875 0,-11.1501 -30.37558,-20.1875 -67.87487,-20.1875 -0.19728,0 -0.37913,0.031 -0.57602,0.031 z"
         style="fill:#ff0000;fill-opacity:1;stroke:#000000;stroke-width:4.31357336;stroke-linecap:square;stroke-linejoin:miter;stroke-miterlimit:4;stroke-opacity:1;stroke-dasharray:none;stroke-dashoffset:0" />
    </g>
    <path
       style="color:#000000;fill:none;stroke:#000000;stroke-width:1;stroke-linecap:square;stroke-linejoin:miter;stroke-miterlimit:4;stroke-opacity:1;stroke-dasharray:4.00000005, 2.00000003, 1.00000001, 2.00000003;stroke-dashoffset:0;marker:none;visibility:visible;display:inline;overflow:visible;enable-background:accumulate"
       d="m 366.29107,972.50421 c 133.0296,0 133.0296,0 133.0296,0"
       id="path3012-0-2-3"
       inkscape:connector-curvature="0" />
    <path
       style="color:#000000;fill:none;stroke:#000000;stroke-width:20;stroke-linecap:square;stroke-linejoin:miter;stroke-miterlimit:4;stroke-opacity:1;stroke-dasharray:none;stroke-dashoffset:0;marker:none;visibility:visible;display:inline;overflow:visible;enable-background:accumulate"
       d="m 292.85714,731.1824 110.35715,-31.86119 c 0,98.21429 0,98.21429 0,98.21429"
       id="path3841"
       inkscape:connector-curvature="0" />
    <path
       style="color:#000000;fill:none;stroke:#000000;stroke-width:19.99999809;stroke-linecap:square;stroke-linejoin:miter;stroke-miterlimit:4;stroke-opacity:1;stroke-dasharray:none;stroke-dashoffset:0;marker:none;visibility:visible;display:inline;overflow:visible;enable-background:accumulate"
       d="m 560,183.93361 c 0,457.67024 0,458.36791 0,458.36791 -107.14286,36.9764 -106.42857,36.9764 -106.42857,36.9764 0,117.20823 0,117.20823 0,117.20823"
       id="path3843"
       inkscape:connector-curvature="0" />
    <path
       sodipodi:type="star"
       style="fill:#000000;fill-opacity:1;stroke:none"
       id="path3899"
       sodipodi:sides="3"
       sodipodi:cx="343.57144"
       sodipodi:cy="774.14789"
       sodipodi:r1="8.6011391"
       sodipodi:r2="4.30057"
       sodipodi:arg1="1.5707963"
       sodipodi:arg2="2.6179939"
       inkscape:flatsided="false"
       inkscape:rounded="0"
       inkscape:randomized="0"
       d="m 343.57144,782.74903 -3.7244,-6.45086 -3.7244,-6.45085 7.4488,0 7.44881,0 -3.72441,6.45085 z"
       inkscape:transform-center-y="5.7217084"
       transform="matrix(2.6609095,0,0,2.6609095,-511.12643,-1250.4324)" />
    <path
       sodipodi:type="star"
       style="fill:#000000;fill-opacity:1;stroke:none"
       id="path3899-0"
       sodipodi:sides="3"
       sodipodi:cx="343.57144"
       sodipodi:cy="774.14789"
       sodipodi:r1="8.6011391"
       sodipodi:r2="4.30057"
       sodipodi:arg1="1.5707963"
       sodipodi:arg2="2.6179939"
       inkscape:flatsided="false"
       inkscape:rounded="0"
       inkscape:randomized="0"
       d="m 343.57144,782.74903 -3.7244,-6.45086 -3.7244,-6.45085 7.4488,0 7.44881,0 -3.72441,6.45085 z"
       inkscape:transform-center-y="5.7217084"
       transform="matrix(2.6609095,0,0,2.6609095,-460.14895,-1262.2996)" />
    <g
       id="g3041"
       transform="matrix(0.45317979,0,0,1,1262.5686,-126.82091)">
      <path
         inkscape:connector-curvature="0"
         id="path3940-8"
         d="m -937.85045,421.51724 -0.0625,-0.125 c -0.80689,0.0378 -1.53448,0.11965 -2.34375,0.15625 0.81394,-0.008 1.59321,-0.0227 2.40625,-0.0312 z"
         style="fill:#ffb380;fill-opacity:1;stroke:#000000;stroke-width:7.4273653;stroke-linecap:square;stroke-linejoin:miter;stroke-miterlimit:4;stroke-opacity:1;stroke-dasharray:none;stroke-dashoffset:0" />
      <path
         inkscape:connector-curvature="0"
         id="path3938-7"
         d="m -1003.2254,298.82974 0.7187,1.34375 c 171.38197,1.13532 308.59375,28.19331 308.59375,61.46875 0,28.96693 -104.0316,53.19596 -244,59.75 l 0.0625,0.125 c 326.94613,-3.44048 581.18745,-29.50041 581.18745,-61.15625 0,-33.7358 -288.7768,-61.11285 -646.5624,-61.53125 z"
         style="fill:#ac9393;fill-opacity:1;stroke:none" />
      <path
         inkscape:connector-curvature="0"
         id="path3972-4"
         d="m -358.6942,370.57974 -8.2188,4.0625 c -50.4718,25.01965 -244.34796,43.14496 -529.2812,49.46875 l -38.21875,0.84375 0,167.5 0,116.25 0,51.25 0,38.34375 c 0,70.1558 0.74786,89.54885 3.375,89.53125 1.84473,-0.0123 20.85142,-1.04725 42.25,-2.28125 31.12307,-1.79479 61.01653,-3.99384 89.5,-6.53125 8.02211,-0.33118 16.61165,-0.67947 25.9375,-1.09375 213.72561,-9.49424 362.47725,-28.69739 403.43745,-52.0625 9.0534,-5.16436 11.797,-9.14458 8.0625,-13.59375 1.0404,0.46608 1.8472,0.81768 2.0938,0.84375 0.5893,0.0623 1.0625,-99.49574 1.0625,-221.21875 l 0,-221.3125 z"
         style="fill:#c8b7b7;fill-opacity:1;stroke:none" />
      <path
         inkscape:connector-curvature="0"
         id="path3981-3"
         d="m -999.09856,532.59551 c 0.012,-125.51785 0.54488,-229.03851 1.18411,-230.0459 2.1252,-3.34922 90.35219,0.88482 144.26398,6.92327 93.23554,10.44294 153.19777,29.1476 158.27379,49.37205 6.55724,26.12616 -79.86966,50.61843 -210.88662,59.76254 -16.74683,1.16882 -28.39841,1.42595 -29.21428,0.64472 -2.54917,-2.44096 -5.07143,-1.31104 -5.07143,2.27189 0,2.61905 0.7619,3.57143 2.85714,3.57143 2.84093,0 2.85715,0.95238 2.85715,167.85714 l 0,167.85715 -32.14286,0 -32.14286,0 0.0219,-228.21429 z"
         style="fill:#e3dbdb;fill-opacity:1;stroke:none" />
    </g>
    <g
       id="g3047"
       transform="translate(0,2.7403159)">
      <path
         inkscape:connector-curvature="0"
         id="path3936-8"
         d="m 69.297563,291.01855 -0.043,0.125 c 0.5018,0.0127 0.9826,0.0503 1.4851,0.0625 -0.4981,-0.0505 -0.9461,-0.13486 -1.4423,-0.1875 z"
         style="fill:#ffb380;fill-opacity:1;stroke:#000000;stroke-width:5.00000048;stroke-linecap:square;stroke-linejoin:miter;stroke-miterlimit:4;stroke-opacity:1;stroke-dasharray:none;stroke-dashoffset:0" />
      <path
         inkscape:connector-curvature="0"
         id="path3934-6"
         d="m 101.97016,168.5498 c -163.352997,0.45163 -295.1391,27.81641 -295.1391,61.53125 0,31.43189 114.550403,57.32922 262.423603,61.0625 l 0.043,-0.125 c -63.3811993,-6.72514 -110.3415,-30.86226 -110.3415,-59.65625 0,-33.51107 63.5812,-60.72818 142.671497,-61.5 l 0.3427,-1.3125 z"
         style="fill:#ff8080;fill-opacity:1;stroke:none" />
      <path
         inkscape:connector-curvature="0"
         id="path3960-5"
         d="m 70.154363,756.39355 0,0.0625 c 0.2172,0.005 0.4252,0.026 0.6425,0.0312 -0.2219,-0.0225 -0.421,-0.0708 -0.6425,-0.0937 z"
         style="fill:#ffff00;fill-opacity:1;stroke:#000000;stroke-width:5.00000048;stroke-linecap:square;stroke-linejoin:miter;stroke-miterlimit:4;stroke-opacity:1;stroke-dasharray:none;stroke-dashoffset:0" />
      <path
         inkscape:connector-curvature="0"
         id="path3958-5"
         d="m -191.86954,240.6123 0,221.96875 0,217.53125 c -0.756,2.04117 -1.1424,4.1313 -1.1424,6.21875 0,34.65817 106.388003,63.41052 246.444303,69.28125 1.3413,0.25145 2.683,0.51436 4.0413,0.75 4.5458,0.78864 8.833,1.55 9.5248,1.6875 0.3109,0.0618 0.5373,-0.27718 0.714,-1.90625 0.8179,0.0247 1.6219,0.0706 2.4419,0.0937 l 0,-0.0937 c -0.8119,-0.0962 -1.6069,-0.20978 -2.4134,-0.3125 0.464,-4.89745 0.5141,-20.34648 0.5141,-67.78125 l 0,-57.4375 0.2142,0 0,-10.90625 c 0.5619,-0.0734 1.1184,-0.1516 1.6851,-0.21875 l 0,-3.0625 c -0.5659,0.016 -1.1202,0.0457 -1.6851,0.0625 l 0,-153.25 0,-167.40625 -5.6834,-1.28125 c -3.1211,-0.71388 -12.9816,-1.33225 -21.9199,-1.34375 -8.9382,-0.0116 -30.9976993,-1.36358 -49.0231993,-3 C -105.79744,281.34193 -170.51474,264.76312 -188.95644,243.89355 l -2.9131,-3.28125 z"
         style="fill:#ffaaaa;fill-opacity:1;stroke:#000000;stroke-width:0;stroke-linecap:square;stroke-linejoin:miter;stroke-miterlimit:4;stroke-opacity:1;stroke-dasharray:none;stroke-dashoffset:0" />
      <path
         inkscape:connector-curvature="0"
         id="path3983-4"
         d="m 68.866963,461.973 c -0.058,-111.93378 0.3543,-167.14286 1.247,-167.14286 0.7331,0 1.3329,-1.98683 1.3329,-4.41518 0,-3.43039 -0.9464,-4.03034 -4.2432,-2.6898 -5.0473,2.05236 -40.9013,-5.14762 -58.4255993,-11.73267 -25.5322007,-9.59419 -46.1459007,-26.86517 -48.4693007,-40.6095 -4.958,-29.33021 53.6437,-60.13083 117.0133,-61.50138 l 22.1952,-0.48004 0.3342,227.85714 0.334197,227.85715 -15.616297,0 -15.6164,0 -0.086,-167.14286 0,0 z"
         style="fill:#ffd5d5;fill-opacity:1;stroke:none" />
    </g>
    <g
       id="g4083"
       transform="matrix(-1,0,0,-1,1117.2288,1051.2605)">
      <path
         inkscape:connector-curvature="0"
         id="path4058"
         d="m 822.85714,551.4758 c 0,-89.77474 0,-89.77474 0,-89.77474"
         style="color:#000000;fill:#ff0000;stroke:#ff0000;stroke-width:25;stroke-linecap:square;stroke-linejoin:miter;stroke-miterlimit:4;stroke-opacity:1;stroke-dasharray:none;stroke-dashoffset:0;marker:none;visibility:visible;display:inline;overflow:visible;enable-background:accumulate" />
      <path
         transform="translate(26.263966,76.771593)"
         inkscape:transform-center-y="-5.3093097"
         d="m 815.40237,394.25983 -18.39199,0 -18.39199,0 9.19599,-15.92794 9.196,-15.92793 9.19599,15.92793 z"
         inkscape:randomized="0"
         inkscape:rounded="0"
         inkscape:flatsided="false"
         sodipodi:arg2="1.5707963"
         sodipodi:arg1="0.52359878"
         sodipodi:r2="10.618622"
         sodipodi:r1="21.237242"
         sodipodi:cy="383.6412"
         sodipodi:cx="797.01038"
         sodipodi:sides="3"
         id="path4060"
         style="fill:#ff0000;fill-opacity:1;stroke:#ff0000;stroke-width:25;stroke-linecap:butt;stroke-linejoin:miter;stroke-miterlimit:4;stroke-opacity:1;stroke-dasharray:none;stroke-dashoffset:0"
         sodipodi:type="star" />
    </g>
    <path
       style="color:#000000;fill:#ff0000;stroke:#ff0000;stroke-width:25;stroke-linecap:square;stroke-linejoin:miter;stroke-miterlimit:4;stroke-opacity:1;stroke-dasharray:none;stroke-dashoffset:0;marker:none;visibility:visible;display:inline;overflow:visible;enable-background:accumulate"
       d="m 560.21746,540.80657 c 0,-89.77473 0,-89.77473 0,-89.77473"
       id="path4058-7"
       inkscape:connector-curvature="0" />
    <path
       sodipodi:type="star"
       style="fill:#ff0000;fill-opacity:1;stroke:#ff0000;stroke-width:25;stroke-linecap:butt;stroke-linejoin:miter;stroke-miterlimit:4;stroke-opacity:1;stroke-dasharray:none;stroke-dashoffset:0"
       id="path4060-0"
       sodipodi:sides="3"
       sodipodi:cx="797.01038"
       sodipodi:cy="383.6412"
       sodipodi:r1="21.237242"
       sodipodi:r2="10.618622"
       sodipodi:arg1="0.52359878"
       sodipodi:arg2="1.5707963"
       inkscape:flatsided="false"
       inkscape:rounded="0"
       inkscape:randomized="0"
       d="m 815.40237,394.25983 -18.39199,0 -18.39199,0 9.19599,-15.92794 9.196,-15.92793 9.19599,15.92793 z"
       inkscape:transform-center-y="-5.3093097"
       transform="translate(-236.37572,66.102373)" />
    <path
       style="color:#000000;fill:none;stroke:#000000;stroke-width:5;stroke-linecap:square;stroke-linejoin:miter;stroke-miterlimit:4;stroke-opacity:1;stroke-dasharray:none;stroke-dashoffset:0;marker:none;visibility:visible;display:inline;overflow:visible;enable-background:accumulate"
       d="m 435.11052,1352.3775 c 0,-107.0761 0,-107.0761 0,-107.0761"
       id="path3946"
       inkscape:connector-curvature="0" />
    <path
       style="color:#000000;fill:none;stroke:#000000;stroke-width:10;stroke-linecap:square;stroke-linejoin:miter;stroke-miterlimit:4;stroke-opacity:1;stroke-dasharray:none;stroke-dashoffset:0;marker:none;visibility:visible;display:inline;overflow:visible;enable-background:accumulate"
       d="m 419.95823,1320.5577 c 0,-37.3756 0,-37.3756 0,-37.3756"
       id="path3948"
       inkscape:connector-curvature="0" />
    <path
       style="color:#000000;fill:none;stroke:#000000;stroke-width:2;stroke-linecap:square;stroke-linejoin:miter;stroke-miterlimit:4;stroke-opacity:1;stroke-dasharray:none;stroke-dashoffset:0;marker:none;visibility:visible;display:inline;overflow:visible;enable-background:accumulate"
       d="m 436.3859,1298.8394 35.35534,0 0,-274.7615"
       id="path4111"
       inkscape:connector-curvature="0" />
    <path
       style="color:#000000;fill:none;stroke:#000000;stroke-width:2;stroke-linecap:square;stroke-linejoin:miter;stroke-miterlimit:4;stroke-opacity:1;stroke-dasharray:none;stroke-dashoffset:0;marker:none;visibility:visible;display:inline;overflow:visible;enable-background:accumulate"
       d="m 419.2133,1296.8191 -36.36549,0 0,-275.7716"
       id="path4115"
       inkscape:connector-curvature="0" />
    <path
       style="color:#000000;fill:#ff0000;stroke:#ff0000;stroke-width:10;stroke-linecap:square;stroke-linejoin:miter;stroke-miterlimit:4;stroke-opacity:1;stroke-dasharray:none;stroke-dashoffset:0;marker:none;visibility:visible;display:inline;overflow:visible;enable-background:accumulate"
       d="m 475.5707,1233.7712 c 0,-57.4734 0,-57.4734 0,-57.4734"
       id="path4058-7-3"
       inkscape:connector-curvature="0" />
    <path
       sodipodi:type="star"
       style="fill:#ff0000;fill-opacity:1;stroke:#ff0000;stroke-width:17.5751133;stroke-linecap:butt;stroke-linejoin:miter;stroke-miterlimit:4;stroke-opacity:1;stroke-dasharray:none;stroke-dashoffset:0"
       id="path4060-0-3"
       sodipodi:sides="3"
       sodipodi:cx="797.01038"
       sodipodi:cy="383.6412"
       sodipodi:r1="21.237242"
       sodipodi:r2="10.618622"
       sodipodi:arg1="0.52359878"
       sodipodi:arg2="1.5707963"
       inkscape:flatsided="false"
       inkscape:rounded="0"
       inkscape:randomized="0"
       d="m 815.40237,394.25983 -18.39199,0 -18.39199,0 9.19599,-15.92794 9.196,-15.92793 9.19599,15.92793 z"
       inkscape:transform-center-y="-3.3989957"
       transform="matrix(0.50569759,0,0,0.64019586,72.735449,929.86757)" />
    <text
       xml:space="preserve"
       style="font-size:56px;font-style:normal;font-variant:normal;font-weight:bold;font-stretch:normal;text-indent:0;text-align:start;text-decoration:none;line-height:125%;letter-spacing:0px;word-spacing:0px;text-transform:none;direction:ltr;block-progression:tb;writing-mode:lr-tb;text-anchor:start;baseline-shift:baseline;color:#000000;fill:#ff0000;fill-opacity:1;fill-rule:nonzero;stroke:none;stroke-width:1px;marker:none;visibility:visible;display:inline;overflow:visible;enable-background:accumulate;font-family:Latin Modern Roman;-inkscape-font-specification:Latin Modern Roman"
       x="599.94446"
       y="542.25024"
       id="text4008-6"
       sodipodi:linespacing="125%"><tspan
         sodipodi:role="line"
         id="tspan4010-1"
         x="599.94446"
         y="542.25024"
         style="fill:#ff0000;stroke:#ff0000;stroke-opacity:1">I</tspan></text>
    <text
       xml:space="preserve"
       style="font-size:56px;font-style:normal;font-variant:normal;font-weight:bold;font-stretch:normal;text-indent:0;text-align:start;text-decoration:none;line-height:125%;letter-spacing:0px;word-spacing:0px;text-transform:none;direction:ltr;block-progression:tb;writing-mode:lr-tb;text-anchor:start;baseline-shift:baseline;color:#000000;fill:#ff0000;fill-opacity:1;fill-rule:nonzero;stroke:none;stroke-width:1px;marker:none;visibility:visible;display:inline;overflow:visible;enable-background:accumulate;font-family:Latin Modern Roman;-inkscape-font-specification:Latin Modern Roman"
       x="502.96979"
       y="1231.1743"
       id="text4008-6-7"
       sodipodi:linespacing="125%"><tspan
         sodipodi:role="line"
         id="tspan4010-1-4"
         x="502.96979"
         y="1231.1743"
         style="fill:#ff0000;stroke:#ff0000;stroke-opacity:1">I</tspan></text>
    <path
       style="color:#000000;fill:none;stroke:#0000ff;stroke-width:5;stroke-linecap:square;stroke-linejoin:miter;stroke-miterlimit:4;stroke-opacity:1;stroke-dasharray:none;stroke-dashoffset:0;marker:none;visibility:visible;display:inline;overflow:visible;enable-background:accumulate"
       d="M 558.61435,385.66151 482.85291,336.16403"
       id="path4156"
       inkscape:connector-curvature="0" />
    <path
       style="color:#000000;fill:none;stroke:#0000ff;stroke-width:5;stroke-linecap:square;stroke-linejoin:miter;stroke-miterlimit:4;stroke-opacity:1;stroke-dasharray:none;stroke-dashoffset:0;marker:none;visibility:visible;display:inline;overflow:visible;enable-background:accumulate"
       d="M 372.24121,510.41535 296.47977,460.91787"
       id="path4156-2"
       inkscape:connector-curvature="0" />
    <path
       style="fill:none;stroke:#000000;stroke-width:0.5;stroke-linecap:butt;stroke-linejoin:miter;stroke-miterlimit:4;stroke-opacity:1;stroke-dasharray:none"
       d="m -484.6875,-1052.9688 -320.84375,0 c 11.63767,25.7431 23.18435,51.5339 35.34375,77.0313 10.43018,21.87113 20.10535,44.18052 32.125,65.21875 8.08416,14.14905 17.05529,27.8251 26.8125,40.875 7.02355,9.39436 13.35087,19.83101 22.75,26.84375 12.83401,9.57527 27.97455,20.01041 43.96875,19.34375 17.84243,-0.74346 33.69022,-13.74883 47.0625,-25.59375 17.96696,-15.91487 28.94462,-38.36968 41.78125,-58.65625 8.09,-12.78535 15.30482,-26.13407 22.15625,-39.625 9.587,-18.87712 17.60149,-38.50709 26.5,-57.71875 6.38011,-13.7746 20.84641,-44.5425 22.34375,-47.7188 z"
       id="path4206"
       inkscape:connector-curvature="0" />
    <path
       style="fill:none;stroke:#000000;stroke-width:0.5;stroke-linecap:butt;stroke-linejoin:miter;stroke-miterlimit:4;stroke-opacity:1;stroke-dasharray:none"
       d="m -968.21875,-1277.1562 c -4.13336,0.1596 -8.31052,1.1186 -12.125,2.625 -12.17383,4.8072 -22.91095,13.1431 -32.40625,22.1562 -14.4182,13.6859 -25.5458,30.6107 -36.1875,47.4062 -13.5413,21.3717 -23.7278,44.7067 -34.9063,67.4063 -13.3396,27.087 -38.3437,82.0625 -38.3437,82.0625 l 315.53125,0.031 c -9.04147,-19.9792 -18.12892,-39.921 -27.75,-59.625 -14.42809,-29.5488 -27.02981,-60.2961 -45.21875,-87.6874 -15.14949,-22.8148 -30.20049,-47.4127 -52.6875,-63.0313 -9.23534,-6.4143 -20.61964,-10.17 -31.8125,-11.2187 -1.36103,-0.1275 -2.71596,-0.1783 -4.09375,-0.125 z"
       id="path3102-3-0"
       inkscape:connector-curvature="0" />
    <path
       style="fill:none;stroke:#000000;stroke-width:0.5;stroke-linecap:butt;stroke-linejoin:miter;stroke-miterlimit:4;stroke-opacity:1;stroke-dasharray:none"
       d="m -806.73547,-1055.5016 c 0,0 25.01,-54.9758 38.3497,-82.0628 11.1785,-22.6996 21.3784,-46.0259 34.9197,-67.3976 10.6417,-16.7956 21.7492,-33.7423 36.1674,-47.4282 9.4953,-9.0131 20.25188,-17.3465 32.42571,-22.1538 5.08598,-2.0085 10.76853,-3.0062 16.21266,-2.4963 11.19286,1.0487 22.56683,4.8186 31.80217,11.2329 22.48701,15.6186 37.54236,40.2147 52.69185,63.0294 18.18894,27.3914 30.78094,58.1306 45.20903,87.6794 22.4164,45.9088 42.23643,93.0492 64.22784,139.1634 10.43018,21.8712 20.09427,44.17546 32.11392,65.21369 8.08416,14.14905 17.05652,27.82533 26.81373,40.87523 7.02355,9.39436 13.36116,19.82165 22.76029,26.83439 12.83401,9.57527 27.9676,20.01212 43.9618,19.34546 17.84243,-0.74346 33.70739,-13.74114 47.07967,-25.58606 17.96696,-15.91487 28.94271,-38.37415 41.77934,-58.66072 8.09,-12.78535 15.28535,-26.13666 22.13678,-39.62759 9.587,-18.8771 17.60329,-38.5131 26.5018,-57.7246 6.70678,-14.4799 23.52034,-50.1389 23.52034,-50.1389"
       id="path3102-3-0-7"
       inkscape:connector-curvature="0"
       sodipodi:nodetypes="csssssssssssssssssc" />
    <path
       style="color:#000000;fill:none;stroke:#007900;stroke-width:10;stroke-linecap:square;stroke-linejoin:miter;stroke-miterlimit:10;stroke-opacity:1;stroke-dasharray:none;stroke-dashoffset:0;marker:none;visibility:visible;display:inline;overflow:visible;enable-background:accumulate"
       d="m 142.85714,72.36219 c 651.42857,0 651.42857,0 651.42857,0"
       id="path3054"
       inkscape:connector-curvature="0" />
    <path
       sodipodi:type="star"
       style="fill:#007426;fill-opacity:1;stroke:#007900;stroke-width:10;stroke-linecap:square;stroke-linejoin:miter;stroke-miterlimit:10;stroke-opacity:1;stroke-dasharray:none;stroke-dashoffset:0"
       id="path3824"
       sodipodi:sides="3"
       sodipodi:cx="692.85712"
       sodipodi:cy="-36.20924"
       sodipodi:r1="21.428572"
       sodipodi:r2="10.714287"
       sodipodi:arg1="0"
       sodipodi:arg2="1.0471976"
       inkscape:flatsided="false"
       inkscape:rounded="0"
       inkscape:randomized="0"
       d="m 714.28569,-36.20924 -16.07143,9.278845 -16.07143,9.278843 0,-18.557688 0,-18.557687 16.07143,9.278843 z"
       inkscape:transform-center-x="-5.3571423"
       transform="translate(107.14286,108.57143)" />
    <text
       xml:space="preserve"
       style="font-size:56px;font-style:normal;font-variant:normal;font-weight:bold;font-stretch:normal;text-indent:0;text-align:start;text-decoration:none;line-height:125%;letter-spacing:0px;word-spacing:0px;text-transform:none;direction:ltr;block-progression:tb;writing-mode:lr-tb;text-anchor:start;baseline-shift:baseline;color:#000000;fill:#007d00;fill-opacity:1;fill-rule:nonzero;stroke:none;stroke-width:1px;marker:none;visibility:visible;display:inline;overflow:visible;enable-background:accumulate;font-family:Latin Modern Roman;-inkscape-font-specification:Latin Modern Roman"
       x="405.99515"
       y="47.275532"
       id="text4008-6-3"
       sodipodi:linespacing="125%"><tspan
         sodipodi:role="line"
         id="tspan4010-1-2"
         x="405.99515"
         y="47.275532"
         style="fill:#007d00;fill-opacity:1;stroke:none">B</tspan></text>
    <path
       style="color:#000000;fill:none;stroke:#007100;stroke-width:5;stroke-linecap:square;stroke-linejoin:miter;stroke-miterlimit:4;stroke-opacity:1;stroke-dasharray:none;stroke-dashoffset:0;marker:none;visibility:visible;display:inline;overflow:visible;enable-background:accumulate"
       d="m 560.71428,383.07647 81.42857,-44.28572"
       id="path3847"
       inkscape:connector-curvature="0" />
    <path
       sodipodi:type="star"
       style="fill:#007d00;fill-opacity:1;stroke:#007c00;stroke-width:5;stroke-linecap:square;stroke-linejoin:miter;stroke-miterlimit:4;stroke-opacity:1;stroke-dasharray:none;stroke-dashoffset:0"
       id="path3849"
       sodipodi:sides="3"
       sodipodi:cx="410"
       sodipodi:cy="365.93362"
       sodipodi:r1="13.646409"
       sodipodi:r2="6.8232055"
       sodipodi:arg1="-0.78539816"
       sodipodi:arg2="0.26179939"
       inkscape:flatsided="false"
       inkscape:rounded="0"
       inkscape:randomized="0"
       d="m 419.64947,356.28416 -3.05876,11.41544 -3.05876,11.41544 -8.35668,-8.35668 -8.35669,-8.35669 11.41544,-3.05876 z"
       inkscape:transform-center-x="-0.11139193"
       inkscape:transform-center-y="3.3146848"
       transform="matrix(0.96157188,0.27455331,-0.27455331,0.96157188,345.50953,-125.64757)" />
    <text
       xml:space="preserve"
       style="font-size:56px;font-style:normal;font-variant:normal;font-weight:bold;font-stretch:normal;text-indent:0;text-align:start;text-decoration:none;line-height:125%;letter-spacing:0px;word-spacing:0px;text-transform:none;direction:ltr;block-progression:tb;writing-mode:lr-tb;text-anchor:start;baseline-shift:baseline;color:#000000;fill:#007d00;fill-opacity:1;fill-rule:nonzero;stroke:none;stroke-width:1px;marker:none;visibility:visible;display:inline;overflow:visible;enable-background:accumulate;font-family:Latin Modern Roman;-inkscape-font-specification:Latin Modern Roman"
       x="633.53827"
       y="320.1416"
       id="text4008-6-3-0"
       sodipodi:linespacing="125%"><tspan
         sodipodi:role="line"
         id="tspan4010-1-2-7"
         x="633.53827"
         y="320.1416"
         style="fill:#007d00;fill-opacity:1;stroke:none">B</tspan></text>
    <path
       sodipodi:type="star"
       style="fill:#0000ff;fill-opacity:1;stroke:#0000ff;stroke-width:5;stroke-linecap:square;stroke-linejoin:miter;stroke-miterlimit:4;stroke-opacity:1;stroke-dasharray:none;stroke-dashoffset:0"
       id="path3849-3"
       sodipodi:sides="3"
       sodipodi:cx="410"
       sodipodi:cy="365.93362"
       sodipodi:r1="13.646409"
       sodipodi:r2="6.8232055"
       sodipodi:arg1="-0.78539816"
       sodipodi:arg2="0.26179939"
       inkscape:flatsided="false"
       inkscape:rounded="0"
       inkscape:randomized="0"
       d="m 419.64947,356.28416 -3.05876,11.41544 -3.05876,11.41544 -8.35668,-8.35668 -8.35669,-8.35669 11.41544,-3.05876 z"
       inkscape:transform-center-x="29.174326"
       inkscape:transform-center-y="29.028962"
       transform="matrix(-0.2430158,-0.97002233,0.97002233,-0.2430158,225.98986,823.54144)" />
    <text
       xml:space="preserve"
       style="font-size:56px;font-style:normal;font-variant:normal;font-weight:bold;font-stretch:normal;text-indent:0;text-align:start;text-decoration:none;line-height:125%;letter-spacing:0px;word-spacing:0px;text-transform:none;direction:ltr;block-progression:tb;writing-mode:lr-tb;text-anchor:start;baseline-shift:baseline;color:#000000;fill:#007d00;fill-opacity:1;fill-rule:nonzero;stroke:none;stroke-width:1px;marker:none;visibility:visible;display:inline;overflow:visible;enable-background:accumulate;font-family:Latin Modern Roman;-inkscape-font-specification:Latin Modern Roman"
       x="480.87994"
       y="307.89487"
       id="text4008-6-3-0-4"
       sodipodi:linespacing="125%"><tspan
         sodipodi:role="line"
         id="tspan4010-1-2-7-9"
         x="480.87994"
         y="307.89487"
         style="fill:#00008f;fill-opacity:1;stroke:none">F</tspan></text>
    <path
       sodipodi:type="star"
       style="fill:#0000ff;fill-opacity:1;stroke:#0000ff;stroke-width:5;stroke-linecap:square;stroke-linejoin:miter;stroke-miterlimit:4;stroke-opacity:1;stroke-dasharray:none;stroke-dashoffset:0"
       id="path3849-3-4"
       sodipodi:sides="3"
       sodipodi:cx="410"
       sodipodi:cy="365.93362"
       sodipodi:r1="13.646409"
       sodipodi:r2="6.8232055"
       sodipodi:arg1="-0.78539816"
       sodipodi:arg2="0.26179939"
       inkscape:flatsided="false"
       inkscape:rounded="0"
       inkscape:randomized="0"
       d="m 419.64947,356.28416 -3.05876,11.41544 -3.05876,11.41544 -8.35668,-8.35668 -8.35669,-8.35669 11.41544,-3.05876 z"
       inkscape:transform-center-x="-7.5149742"
       inkscape:transform-center-y="34.904626"
       transform="matrix(-0.96157188,-0.27455331,0.27455331,-0.96157188,666.9793,977.26355)" />
    <text
       xml:space="preserve"
       style="font-size:56px;font-style:normal;font-variant:normal;font-weight:bold;font-stretch:normal;text-indent:0;text-align:start;text-decoration:none;line-height:125%;letter-spacing:0px;word-spacing:0px;text-transform:none;direction:ltr;block-progression:tb;writing-mode:lr-tb;text-anchor:start;baseline-shift:baseline;color:#000000;fill:#000000;fill-opacity:1;fill-rule:nonzero;stroke:none;stroke-width:1px;marker:none;visibility:visible;display:inline;overflow:visible;enable-background:accumulate;font-family:Latin Modern Roman;-inkscape-font-specification:Latin Modern Roman"
       x="418.46198"
       y="140.93535"
       id="text4008-6-3-0-4-5"
       sodipodi:linespacing="125%"><tspan
         sodipodi:role="line"
         id="tspan4010-1-2-7-9-0"
         x="418.46198"
         y="140.93535"
         style="font-size:30px;fill:#000000;fill-opacity:1;stroke:none">A</tspan></text>
    <text
       xml:space="preserve"
       style="font-size:56px;font-style:normal;font-variant:normal;font-weight:bold;font-stretch:normal;text-indent:0;text-align:start;text-decoration:none;line-height:125%;letter-spacing:0px;word-spacing:0px;text-transform:none;direction:ltr;block-progression:tb;writing-mode:lr-tb;text-anchor:start;baseline-shift:baseline;color:#000000;fill:#000000;fill-opacity:1;fill-rule:nonzero;stroke:none;stroke-width:1px;marker:none;visibility:visible;display:inline;overflow:visible;enable-background:accumulate;font-family:Latin Modern Roman;-inkscape-font-specification:Latin Modern Roman"
       x="413.81107"
       y="642.48785"
       id="text4008-6-3-0-4-5-1"
       sodipodi:linespacing="125%"><tspan
         sodipodi:role="line"
         id="tspan4010-1-2-7-9-0-5"
         x="413.81107"
         y="642.48785"
         style="font-size:30px;fill:#000000;fill-opacity:1;stroke:none">A'</tspan></text>
  </g>
</svg>
